<?xml version="1.0" standalone="no"?>
<!DOCTYPE svg PUBLIC "-//W3C//DTD SVG 20010904//EN"
 "http://www.w3.org/TR/2001/REC-SVG-20010904/DTD/svg10.dtd">
<svg version="1.0" xmlns="http://www.w3.org/2000/svg"
 width="840.000000pt" height="961.000000pt" viewBox="0 0 840.000000 961.000000"
 preserveAspectRatio="xMidYMid meet">

<g transform="translate(0.000000,961.000000) scale(0.100000,-0.100000)"
fill="currentColor" stroke="none">
<path d="M4163 9133 c-17 -37 -182 -401 -368 -808 -185 -407 -404 -886 -485
-1065 -81 -179 -277 -608 -435 -955 -158 -346 -309 -677 -335 -735 -26 -58
-222 -487 -435 -955 -213 -467 -443 -971 -510 -1120 -67 -148 -263 -578 -435
-955 -172 -377 -370 -811 -440 -965 -70 -154 -214 -470 -320 -703 -106 -233
-191 -424 -189 -426 2 -1 101 21 219 51 118 29 654 161 1190 294 536 132 1331
329 1765 436 435 108 801 195 815 195 14 -1 288 -66 610 -146 322 -79 1080
-266 1685 -415 605 -149 1235 -304 1400 -345 165 -41 301 -73 302 -73 1 1 -59
135 -133 297 -204 445 -328 717 -414 905 -43 94 -173 379 -290 635 -117 256
-295 645 -395 865 -431 943 -565 1236 -685 1500 -70 154 -190 415 -265 580
-328 717 -467 1021 -610 1335 -84 184 -215 470 -290 635 -75 165 -172 377
-215 470 -42 94 -123 269 -178 390 -55 121 -141 310 -192 420 -50 110 -143
315 -207 455 -64 140 -119 259 -123 263 -4 4 -20 -23 -37 -60z m33 -6941 c-5
-4 -140 -38 -821 -206 -236 -58 -749 -184 -1139 -281 -390 -96 -711 -173 -713
-172 -3 4 16 46 577 1277 199 437 395 867 435 955 40 88 177 390 305 670 128
281 324 710 435 955 301 662 875 1918 899 1970 l21 45 3 -2604 c1 -1432 0
-2606 -2 -2609z"/>
</g>
</svg>
