<?xml version="1.0" standalone="no"?>
<!DOCTYPE svg PUBLIC "-//W3C//DTD SVG 20010904//EN"
 "http://www.w3.org/TR/2001/REC-SVG-20010904/DTD/svg10.dtd">
 <svg id="svg" xmlns="http://www.w3.org/2000/svg" xmlns:xlink="http://www.w3.org/1999/xlink" stroke="currentColor" width="400" height="400" viewBox="0, 0, 400,400"><g id="svgg"><path id="path0" d="M197.233 45.199 C 182.598 69.435,153.966 120.470,154.388 121.568 C 154.816 122.685,157.253 123.000,165.469 123.000 L 176.000 123.000 176.000 137.259 L 176.000 151.518 169.250 153.930 C 136.617 165.591,107.205 207.306,122.605 220.087 C 123.718 221.011,123.562 221.534,121.730 223.020 C 119.905 224.499,119.527 225.751,119.651 229.914 C 119.734 232.711,119.469 235.000,119.062 235.000 C 115.368 235.000,115.195 245.994,118.823 250.215 C 121.377 253.187,121.521 253.738,120.338 256.000 C 118.603 259.314,118.668 262.131,120.590 266.933 C 122.043 270.564,122.043 271.101,120.590 273.175 C 117.380 277.758,119.073 292.244,123.666 299.504 C 129.893 309.348,137.250 311.966,158.731 311.985 L 174.962 312.000 175.231 334.250 L 175.500 356.500 199.000 356.500 L 222.500 356.500 222.769 334.250 L 223.038 312.000 237.769 311.999 C 258.378 311.998,267.064 308.111,273.059 296.206 C 276.065 290.238,276.595 275.180,273.894 272.470 C 272.419 270.991,272.439 270.562,274.144 267.218 C 276.319 262.951,276.480 259.474,274.662 256.000 C 273.479 253.738,273.623 253.187,276.177 250.215 C 279.510 246.337,279.958 240.799,277.250 236.973 C 276.170 235.446,275.496 232.645,275.489 229.653 C 275.480 225.841,274.997 224.416,273.229 222.984 C 271.333 221.449,271.193 220.949,272.339 219.804 C 276.708 215.435,276.545 205.644,271.945 196.122 C 270.875 193.908,270.000 191.625,270.000 191.048 C 270.000 190.472,269.550 190.000,269.000 190.000 C 268.450 190.000,268.000 189.392,268.000 188.649 C 268.000 182.527,248.001 164.005,234.500 157.623 C 231.200 156.062,227.488 154.308,226.250 153.724 C 224.066 152.693,224.000 152.230,224.000 137.831 L 224.000 123.000 234.531 123.000 C 242.792 123.000,245.182 122.688,245.617 121.555 C 246.330 119.698,202.708 42.602,200.716 42.199 C 199.897 42.033,198.330 43.383,197.233 45.199 M220.179 84.283 L 238.959 117.500 229.229 118.000 L 219.500 118.500 219.226 135.310 C 218.975 150.677,218.803 152.077,217.226 151.631 C 207.469 148.869,187.964 148.199,182.775 150.447 C 181.188 151.135,181.029 149.890,180.775 134.847 L 180.500 118.500 170.823 118.000 L 161.146 117.500 180.704 83.714 C 191.461 65.132,200.518 50.184,200.831 50.497 C 201.144 50.810,209.850 66.014,220.179 84.283 M209.678 155.088 C 236.881 158.871,259.391 176.483,268.792 201.339 C 271.877 209.496,271.697 213.457,268.077 217.077 L 265.154 220.000 198.124 220.000 C 151.129 220.000,130.366 219.668,128.657 218.890 C 122.653 216.154,122.530 208.158,128.307 196.000 C 142.396 166.350,174.521 150.198,209.678 155.088 M187.642 171.180 C 185.283 172.501,185.576 176.703,188.122 178.065 C 189.866 178.999,190.596 178.848,192.227 177.218 C 195.751 173.693,191.994 168.745,187.642 171.180 M160.832 179.470 C 159.971 181.359,160.005 182.301,160.975 183.470 C 164.022 187.142,169.154 183.827,167.168 179.470 C 166.506 178.017,165.202 177.000,164.000 177.000 C 162.798 177.000,161.494 178.017,160.832 179.470 M211.750 178.080 C 208.029 180.248,210.693 185.465,215.195 184.827 C 217.844 184.451,218.865 180.747,216.954 178.445 C 215.556 176.761,214.181 176.664,211.750 178.080 M182.714 194.619 C 179.975 197.358,184.511 202.868,187.977 201.012 C 191.408 199.176,190.389 194.587,186.464 194.203 C 184.794 194.039,183.107 194.227,182.714 194.619 M246.250 195.644 C 245.563 195.931,245.000 197.199,245.000 198.461 C 245.000 202.910,250.043 204.473,252.388 200.750 C 254.447 197.479,250.236 193.976,246.250 195.644 M152.250 199.641 C 149.989 200.592,150.804 204.954,153.470 206.168 C 156.697 207.639,159.221 205.705,158.801 202.086 C 158.499 199.495,155.370 198.327,152.250 199.641 M216.200 203.200 C 213.505 205.895,215.606 210.000,219.681 210.000 C 221.283 210.000,222.150 209.252,222.593 207.487 C 223.674 203.178,219.214 200.186,216.200 203.200 M270.830 228.356 C 271.329 230.945,269.886 232.068,265.543 232.472 C 262.269 232.776,259.988 233.905,250.416 239.956 C 248.572 241.122,247.708 240.878,242.916 237.838 C 231.933 230.870,230.438 230.862,220.105 237.719 L 214.710 241.300 210.355 238.921 C 207.960 237.612,206.000 236.244,206.000 235.879 C 206.000 235.515,204.117 234.464,201.816 233.543 C 197.720 231.904,189.000 233.463,189.000 235.834 C 189.000 236.202,187.023 237.552,184.606 238.834 L 180.213 241.165 173.856 237.195 C 163.691 230.845,162.418 230.876,152.105 237.719 C 147.294 240.912,146.481 241.155,144.605 239.969 C 134.604 233.647,132.576 232.663,129.315 232.550 C 125.385 232.414,123.273 230.337,124.312 227.629 C 125.352 224.919,270.307 225.638,270.830 228.356 M137.150 241.102 C 145.062 246.475,147.742 246.484,155.905 241.170 C 163.735 236.072,163.175 236.071,171.051 241.196 C 174.989 243.759,178.668 245.392,180.500 245.392 C 182.332 245.392,186.011 243.759,189.949 241.196 C 193.496 238.888,196.788 237.000,197.265 237.000 C 198.377 237.000,202.347 239.082,203.000 240.008 C 207.068 245.778,216.140 246.399,223.213 241.392 C 230.366 236.329,231.565 236.311,239.000 241.150 C 247.160 246.462,249.667 246.456,257.722 241.105 C 266.402 235.340,274.000 235.912,274.000 242.332 C 274.000 249.436,278.987 249.000,197.674 249.000 C 116.392 249.000,121.000 249.402,121.000 242.313 C 121.000 235.771,128.474 235.210,137.150 241.102 M268.686 256.174 C 271.847 259.144,271.710 263.438,268.354 266.548 L 265.708 269.000 197.758 269.000 C 130.666 269.000,129.772 268.974,126.904 266.932 C 123.336 264.391,122.943 259.511,126.039 256.189 L 128.078 254.000 197.225 254.000 L 266.371 254.000 268.686 256.174 M204.947 278.750 C 209.462 281.363,214.206 284.175,215.490 285.000 C 230.936 294.926,230.147 294.971,241.526 283.500 L 250.949 274.000 260.455 274.000 C 271.532 274.000,271.663 274.146,270.758 285.426 C 269.980 295.112,264.009 303.029,255.596 305.527 C 248.255 307.707,146.725 307.706,139.432 305.526 C 129.425 302.535,124.019 294.405,124.006 282.332 C 123.996 273.252,120.675 274.000,160.976 274.000 L 196.738 274.000 204.947 278.750 M243.000 274.676 C 243.000 275.048,240.107 278.203,236.572 281.687 L 230.143 288.021 223.822 284.367 C 215.974 279.830,208.000 274.772,208.000 274.332 C 208.000 274.149,215.875 274.000,225.500 274.000 C 235.125 274.000,243.000 274.304,243.000 274.676 M218.000 332.000 L 218.000 352.000 199.000 352.000 L 180.000 352.000 180.000 332.000 L 180.000 312.000 199.000 312.000 L 218.000 312.000 218.000 332.000 " stroke="none" fill="currentColor" fill-rule="evenodd"></path></g></svg>